<?xml version="1.0" encoding="utf-8"?>
<!-- Generator: Adobe Illustrator 24.1.3, SVG Export Plug-In . SVG Version: 6.00 Build 0)  -->
<svg version="1.1" id="Ebene_1" xmlns="http://www.w3.org/2000/svg" xmlns:xlink="http://www.w3.org/1999/xlink" x="0px" y="0px"
	 viewBox="0 0 850.39 1133.86" style="enable-background:new 0 0 850.39 1133.86;" xml:space="preserve">
<g id="ANTLIA_2_">
	<path d="M462.92,552.02c-2.09,0.13-3.69,1.94-3.56,4.03c0.13,2.09,1.94,3.69,4.03,3.56c2.09-0.13,3.69-1.94,3.56-4.03
		C466.82,553.48,465.02,551.89,462.92,552.02z"/>
	<path d="M381.8,526.25c-2.09,0.13-3.69,1.94-3.56,4.03c0.13,2.09,1.94,3.69,4.03,3.56c2.09-0.13,3.69-1.94,3.56-4.03
		C385.7,527.71,383.89,526.12,381.8,526.25z"/>
	<path d="M353.26,566.29c-2.09,0.13-3.69,1.94-3.56,4.03s1.94,3.69,4.03,3.56c2.09-0.13,3.69-1.94,3.56-4.03
		S355.36,566.16,353.26,566.29z"/>
	<path d="M456.6,552.78l-66.58-23c-0.39-0.14-0.82,0.07-0.95,0.46s0.07,0.82,0.46,0.95l66.58,23c0.08,0.03,0.16,0.04,0.25,0.04
		c0.31,0,0.6-0.19,0.71-0.5C457.2,553.34,456.99,552.92,456.6,552.78z"/>
	<path d="M376.77,535.04l-19.74,28.65c-0.23,0.34-0.15,0.81,0.19,1.04c0.13,0.09,0.28,0.13,0.43,0.13c0.24,0,0.47-0.11,0.62-0.32
		l19.74-28.65c0.23-0.34,0.15-0.81-0.19-1.04C377.47,534.61,377.01,534.7,376.77,535.04z"/>
</g>
</svg>
