<?xml version="1.0" encoding="utf-8"?>
<!-- Generator: Adobe Illustrator 24.1.3, SVG Export Plug-In . SVG Version: 6.00 Build 0)  -->
<svg version="1.1" id="Ebene_1" xmlns="http://www.w3.org/2000/svg" xmlns:xlink="http://www.w3.org/1999/xlink" x="0px" y="0px"
	 viewBox="0 0 850.39 1133.86" style="enable-background:new 0 0 850.39 1133.86;" xml:space="preserve">
<g id="Pisces">
	<path d="M383.5,607.45c-0.98,1-0.96,2.6,0.04,3.57s2.6,0.96,3.57-0.04c0.98-1,0.96-2.6-0.04-3.57S384.48,606.45,383.5,607.45z"/>
	<path d="M385.73,567.53c0.98-1,0.96-2.6-0.04-3.57c-1-0.98-2.6-0.96-3.57,0.04c-0.98,1-0.96,2.6,0.04,3.57
		C383.16,568.55,384.76,568.53,385.73,567.53z"/>
	<path d="M383.5,586.36c-0.98,1-0.96,2.6,0.04,3.57c1,0.98,2.6,0.96,3.57-0.04c0.98-1,0.96-2.6-0.04-3.57
		C386.07,585.35,384.48,585.37,383.5,586.36z"/>
	<path d="M397.59,588.37c-0.98,1-0.96,2.6,0.04,3.57c1,0.98,2.6,0.96,3.57-0.04c0.98-1,0.96-2.6-0.04-3.57
		C400.17,587.36,398.57,587.38,397.59,588.37z"/>
	<path d="M407.44,578.37c-0.98,1-0.96,2.6,0.04,3.57c1,0.98,2.6,0.96,3.57-0.04c0.98-1,0.96-2.6-0.04-3.57
		C410.02,577.35,408.42,577.37,407.44,578.37z"/>
	<path d="M418.58,571.6c-0.98,1-0.96,2.6,0.04,3.57c1,0.98,2.6,0.96,3.57-0.04c0.98-1,0.96-2.6-0.04-3.57S419.55,570.6,418.58,571.6
		z"/>
	<path d="M441.29,558.38c-0.98,1-0.96,2.6,0.04,3.57s2.6,0.96,3.57-0.04c0.98-1,0.96-2.6-0.04-3.57S442.26,557.39,441.29,558.38z"/>
	<path d="M459.17,550.48c-1-0.98-2.6-0.96-3.57,0.04c-0.98,1-0.96,2.6,0.04,3.57c1,0.98,2.6,0.96,3.57-0.04
		C460.19,553.06,460.17,551.46,459.17,550.48z"/>
	<path d="M467.39,543.04c-1-0.98-2.6-0.96-3.57,0.04c-0.98,1-0.96,2.6,0.04,3.57c1,0.98,2.6,0.96,3.57-0.04
		C468.4,545.62,468.38,544.02,467.39,543.04z"/>
	<path d="M481.69,543.04c-1-0.98-2.6-0.96-3.57,0.04s-0.96,2.6,0.04,3.57c1,0.98,2.6,0.96,3.57-0.04
		C482.7,545.62,482.69,544.02,481.69,543.04z"/>
	<path d="M474.12,554.93c-0.98,1-0.96,2.6,0.04,3.57c1,0.98,2.6,0.96,3.57-0.04c0.98-1,0.96-2.6-0.04-3.57
		C476.69,553.91,475.1,553.93,474.12,554.93z"/>
	<path d="M462.03,561.23c-0.98,1-0.96,2.6,0.04,3.57s2.6,0.96,3.57-0.04c0.98-1,0.96-2.6-0.04-3.57S463.01,560.23,462.03,561.23z"/>
	<path d="M383.64,545.16c0.98-1,0.96-2.6-0.04-3.57c-1-0.98-2.6-0.96-3.57,0.04s-0.96,2.6,0.04,3.57
		C381.07,546.18,382.67,546.16,383.64,545.16z"/>
	<path d="M375.27,526.41c0.98-1,0.96-2.6-0.04-3.57c-1-0.98-2.6-0.96-3.57,0.04s-0.96,2.6,0.04,3.57
		C372.69,527.42,374.29,527.41,375.27,526.41z"/>
	<path d="M368.67,538.62c-0.98,1-0.96,2.6,0.04,3.57s2.6,0.96,3.57-0.04c0.98-1,0.96-2.6-0.04-3.57S369.64,537.63,368.67,538.62z"/>
	<path d="M385.05,584.61c0.01,0,0.03,0,0.04,0c0.41-0.02,0.73-0.38,0.71-0.79l-0.76-13.17c-0.02-0.41-0.38-0.74-0.79-0.71
		c-0.41,0.02-0.73,0.38-0.71,0.79l0.76,13.17C384.33,584.3,384.66,584.61,385.05,584.61z"/>
	<path d="M383.44,562.09c0.03,0,0.06,0,0.08,0c0.41-0.05,0.71-0.42,0.66-0.83l-1.5-13.63c-0.05-0.41-0.42-0.7-0.83-0.66
		c-0.41,0.05-0.71,0.42-0.66,0.83l1.5,13.63C382.74,561.8,383.06,562.09,383.44,562.09z"/>
	<path d="M380.05,539.88c0.38-0.15,0.57-0.59,0.42-0.97l-4.14-10.41c-0.15-0.38-0.59-0.57-0.97-0.42c-0.38,0.15-0.57,0.59-0.42,0.97
		l4.14,10.41c0.12,0.29,0.4,0.47,0.7,0.47C379.87,539.93,379.96,539.92,380.05,539.88z"/>
	<path d="M371.48,537.03c0.02,0,0.03,0,0.05,0c0.39,0,0.72-0.31,0.75-0.7l0.44-6.94c0.03-0.41-0.29-0.77-0.7-0.8
		c-0.42-0.03-0.77,0.29-0.8,0.7l-0.44,6.94C370.75,536.64,371.06,537,371.48,537.03z"/>
	<path d="M377.53,543.16l-3.11-0.96c-0.39-0.12-0.82,0.1-0.94,0.49s0.1,0.82,0.49,0.94l3.11,0.96c0.07,0.02,0.15,0.03,0.22,0.03
		c0.32,0,0.62-0.21,0.72-0.53C378.15,543.71,377.93,543.29,377.53,543.16z"/>
	<path d="M384.75,592.67v11.51c0,0.41,0.34,0.75,0.75,0.75s0.75-0.34,0.75-0.75v-11.51c0-0.41-0.34-0.75-0.75-0.75
		S384.75,592.25,384.75,592.67z"/>
	<path d="M395.83,593.35l-8.65,11.02c-0.26,0.33-0.2,0.8,0.13,1.05c0.14,0.11,0.3,0.16,0.46,0.16c0.22,0,0.44-0.1,0.59-0.29
		l8.65-11.02c0.26-0.33,0.2-0.8-0.13-1.05C396.56,592.96,396.09,593.02,395.83,593.35z"/>
	<path d="M405.29,582.62l-3.55,3.5c-0.29,0.29-0.3,0.77-0.01,1.06c0.15,0.15,0.34,0.22,0.53,0.22c0.19,0,0.38-0.07,0.53-0.22
		l3.55-3.5c0.29-0.29,0.3-0.77,0.01-1.06C406.06,582.34,405.58,582.33,405.29,582.62z"/>
	<path d="M416.23,574.68l-3.63,2.3c-0.35,0.22-0.45,0.68-0.23,1.03c0.14,0.23,0.39,0.35,0.63,0.35c0.14,0,0.28-0.04,0.4-0.12
		l3.63-2.3c0.35-0.22,0.45-0.68,0.23-1.03C417.04,574.56,416.58,574.46,416.23,574.68z"/>
	<path d="M438.65,561.69l-14.96,8.69c-0.36,0.21-0.48,0.67-0.27,1.02c0.14,0.24,0.39,0.37,0.65,0.37c0.13,0,0.26-0.03,0.38-0.1
		l14.96-8.69c0.36-0.21,0.48-0.67,0.27-1.02C439.47,561.6,439.01,561.48,438.65,561.69z"/>
	<path d="M453.39,554.15l-6.61,3.39c-0.37,0.19-0.51,0.64-0.33,1.01c0.13,0.26,0.4,0.41,0.67,0.41c0.12,0,0.23-0.03,0.34-0.08
		l6.61-3.39c0.37-0.19,0.51-0.64,0.33-1.01S453.76,553.96,453.39,554.15z"/>
	<path d="M469.69,544.69l6.15,0.27c0.01,0,0.02,0,0.03,0c0.4,0,0.73-0.31,0.75-0.72c0.02-0.41-0.3-0.76-0.72-0.78l-6.15-0.27
		c-0.41-0.04-0.76,0.3-0.78,0.72C468.95,544.32,469.27,544.67,469.69,544.69z"/>
	<path d="M460.1,549.62c0.16,0,0.32-0.05,0.46-0.16l2.15-1.66c0.33-0.25,0.39-0.72,0.14-1.05c-0.25-0.33-0.72-0.39-1.05-0.14
		l-2.15,1.66c-0.33,0.25-0.39,0.72-0.14,1.05C459.65,549.52,459.87,549.62,460.1,549.62z"/>
	<path d="M461.81,559.07l-2.1-3.61c-0.21-0.36-0.67-0.48-1.03-0.27c-0.36,0.21-0.48,0.67-0.27,1.03l2.1,3.61
		c0.14,0.24,0.39,0.37,0.65,0.37c0.13,0,0.26-0.03,0.38-0.1C461.9,559.89,462.02,559.43,461.81,559.07z"/>
	<path d="M472.25,559.06l-4.33,2.35c-0.36,0.2-0.5,0.65-0.3,1.02c0.14,0.25,0.39,0.39,0.66,0.39c0.12,0,0.24-0.03,0.36-0.09
		l4.33-2.35c0.36-0.2,0.5-0.65,0.3-1.02C473.07,559,472.62,558.86,472.25,559.06z"/>
	<path d="M478.65,548.18c-0.4-0.11-0.81,0.12-0.92,0.52l-1.1,3.97c-0.11,0.4,0.12,0.81,0.52,0.92c0.07,0.02,0.13,0.03,0.2,0.03
		c0.33,0,0.63-0.22,0.72-0.55l1.1-3.97C479.29,548.71,479.05,548.29,478.65,548.18z"/>
</g>
</svg>
