<?xml version="1.0" encoding="utf-8"?>
<!-- Generator: Adobe Illustrator 24.1.3, SVG Export Plug-In . SVG Version: 6.00 Build 0)  -->
<svg version="1.1" id="Ebene_1" xmlns="http://www.w3.org/2000/svg" xmlns:xlink="http://www.w3.org/1999/xlink" x="0px" y="0px"
	 viewBox="0 0 850.39 1133.86" style="enable-background:new 0 0 850.39 1133.86;" xml:space="preserve">
<path id="Pisces_4_" d="M454.77,607.36c-9.24-13.1-13.93-26.3-14.11-39.54h9.64c0.41,0,0.75-0.34,0.75-0.75s-0.34-0.75-0.75-0.75
	h-9.64c0.16-13.25,4.86-26.53,14.11-39.73c0.24-0.34,0.16-0.81-0.18-1.04c-0.34-0.24-0.81-0.16-1.04,0.18
	c-9.45,13.49-14.25,27.05-14.41,40.59h-27.86c-0.16-13.54-4.96-27.1-14.41-40.59c-0.24-0.34-0.71-0.42-1.04-0.18
	c-0.34,0.24-0.42,0.71-0.18,1.04c9.25,13.2,13.95,26.47,14.11,39.73h-9.64c-0.41,0-0.75,0.34-0.75,0.75s0.34,0.75,0.75,0.75h9.64
	c-0.18,13.23-4.87,26.44-14.11,39.54c-0.24,0.34-0.16,0.81,0.18,1.04c0.13,0.09,0.28,0.14,0.43,0.14c0.24,0,0.47-0.11,0.61-0.32
	c9.44-13.38,14.23-26.88,14.41-40.4h27.86c0.18,13.52,4.97,27.02,14.41,40.4c0.15,0.21,0.38,0.32,0.61,0.32
	c0.15,0,0.3-0.04,0.43-0.14C454.92,608.17,455,607.7,454.77,607.36z"/>
</svg>
